<?xml version="1.0" encoding="UTF-8"?>
<svg id="Capa_1" data-name="Capa 1" xmlns="http://www.w3.org/2000/svg" xmlns:xlink="http://www.w3.org/1999/xlink" version="1.1" viewBox="0 0 250 150">
  <defs>
    <style>
      .cls-1 {
        fill: url(#linear-gradient);
        stroke-width: 0px;
      }
    </style>
    <linearGradient id="linear-gradient" x1="4.03" y1="75" x2="245.97" y2="75" gradientUnits="userSpaceOnUse">
      <stop offset="0" stop-color="#fde19c"/>
      <stop offset=".34" stop-color="#d9b577"/>
      <stop offset="1" stop-color="#986535"/>
    </linearGradient>
  </defs>
  <path class="cls-1" d="M245.93,50.17c0-.28-.02-.56-.07-.85v-.18c-.02-.12-.05-.25-.09-.39-.85-4.69-4.55-8.38-9.26-9.19-.19-.04-.39-.09-.58-.11h-.09c-.83-.09-1.69-.11-2.56,0h-.04c-.09,0-.16.04-.23.05-.44.05-.86.14-1.29.25-.02,0-.04.02-.07.02-.14.04-.26.07-.41.11-.04.02-.07.02-.12.04-.44.14-.86.3-1.29.49-.04.02-.07.04-.12.05-.05.04-.12.07-.18.11-.11.05-.21.11-.34.16-.25.14-.51.3-.76.46-.09.05-.18.11-.26.18-.07.05-.16.11-.23.16-.07.05-.16.11-.25.16-.28.23-.56.46-.85.71-.07.07-.14.14-.21.21-.02.02-.04.05-.07.07l-.32.32c-.14.14-.26.3-.39.44-.07.09-.14.19-.21.28-.19.25-.37.51-.56.78-.09.12-.19.25-.28.39-.04.07-.07.12-.11.19-.05.09-.09.18-.14.28-.14.25-.25.49-.37.76-.12.28-.25.55-.35.85s-.19.62-.28.94c-.04.14-.09.26-.12.41,0,.02-.02.05-.02.07-.05.28-.14.55-.19.83-.64,4.64,1.55,8.82,5.06,11.12.56.39.55,1.2-.04,1.55l-134.54,77.69H23.72c-1.68,0-3.03-1.36-3.03-3.03v-63.04l75.76,43.76c1.61.92,3.58.92,5.21,0,3.49-2.01,3.49-7.04,0-9.05l-29.64-17.12,52.72-52.74,38.55,38.55c1.73,1.71,4.43,2.22,6.51.99,2.95-1.73,3.48-5.77,1.06-8.19l-40.39-40.39c2.79-1.13,5.15-3.03,6.83-5.49,1.68-2.43,2.65-5.4,2.65-8.59C139.94,6.68,132.9-.22,124.31,0c-7.83.21-14.4,6.63-14.79,14.45-.32,6.7,3.71,12.51,9.49,14.84l-56.36,56.37-40.93-23.8c-.56-.35-.6-1.16-.02-1.55,3.51-2.29,5.68-6.48,5.05-11.12-.04-.26-.11-.49-.18-.74-.11-.6-.28-1.15-.49-1.71-.04-.07-.07-.16-.11-.25-1.52-3.72-4.92-6.46-9.03-7-.07-.02-.14-.04-.19-.04h-.09c-.72-.09-1.48-.09-2.26-.02h-.07s-.09,0-.12.02h-.14c-.05.02-.11.02-.18.04-.25.04-.51.07-.76.14h-.04c-.09.02-.18.05-.26.07-.18.05-.37.09-.55.16-3.63,1.04-6.51,3.81-7.68,7.39v.02c-.23.62-.39,1.25-.48,1.89-.02.04-.02.09-.02.14-.05.49-.09.97-.09,1.45,0,.16,0,.32.02.49.02.35.04.71.09,1.06.02.19.05.37.09.55.05.32.12.62.21.92.05.21.11.41.16.6.09.25.19.49.3.72.21.55.48,1.06.76,1.54.04.05.05.11.09.16.21.32.42.64.67.94.04.04.05.09.09.12.79.99,1.73,1.87,2.82,2.56.09.05.16.12.23.19.37.34.62.78.62,1.27v77.69c0,5.77,4.68,10.45,10.45,10.45h208.77c5.77,0,10.43-4.68,10.43-10.45V61.87c0-.6.35-1.13.85-1.46,1.78-1.13,3.21-2.72,4.13-4.61.05-.09.09-.16.12-.23.12-.28.25-.56.35-.85.05-.18.12-.35.18-.53.07-.23.14-.46.19-.71.07-.25.11-.49.16-.76.04-.19.07-.39.09-.6.04-.3.05-.62.07-.92,0-.14.02-.28.02-.42v-.12c0-.16-.02-.32-.04-.49ZM117.62,18.02c-2.15-5.91,2.88-11.45,8.7-10.25,2.93.6,5.29,2.96,5.86,5.91.95,4.89-2.73,9.12-7.45,9.14-1.57,0-3.07-.48-4.32-1.31-1.25-.83-2.26-2.03-2.79-3.49ZM20.6,53.2c-.65,1.38-1.84,2.45-3.26,2.96-.09.04-.18.07-.26.09-.18.05-.37.09-.56.12-.16.04-.3.07-.46.09-.09,0-.18,0-.26.02h-.6c-.34-.02-.67-.05-.99-.14-.11-.02-.19-.04-.28-.07-.16-.04-.32-.09-.46-.14-.58-.21-1.11-.51-1.57-.92-.02,0-.04-.02-.05-.02-1.59-1.32-2.45-3.42-1.91-5.75.41-1.83,1.78-3.37,3.55-4.01t.04-.02c.23-.09.46-.14.69-.19.09-.02.16-.04.25-.04.14-.04.3-.05.44-.07.14-.02.26-.02.41-.02.09,0,.19-.02.3-.02.39.02.78.07,1.15.16.05.02.12.04.18.05.16.04.3.09.44.14.07.02.14.04.19.07.14.05.28.12.42.19.05.02.12.05.19.09.12.07.25.16.37.23.07.04.12.09.18.12.12.09.25.18.37.28.05.04.09.09.14.12.12.11.23.21.34.34.04.02.05.04.07.05.37.42.69.9.94,1.41.04.04.05.09.07.12.07.16.12.3.18.46.02.05.04.11.05.18.05.16.09.32.12.48.02.05.04.11.04.16.04.18.05.35.07.55,0,.04.02.07.02.11,0,.21.02.41,0,.6v.02c-.02.46-.09.92-.21,1.39-.07.28-.18.55-.3.79ZM229.31,136.52c0,1.68-1.36,3.03-3.05,3.03h-111.69l114.74-66.08v63.04ZM238.15,55.2s-.02.02-.04.02c-.48.41-.99.71-1.57.92-.18.07-.34.11-.51.16-.07.02-.14.04-.21.05-.35.09-.69.12-1.06.14h-.49c-.07,0-.12-.02-.19-.02h-.16c-.11-.02-.19-.04-.28-.05-.26-.05-.51-.09-.76-.18h-.05c-.12-.05-.25-.12-.37-.18-.23-.09-.46-.18-.67-.3-.14-.09-.26-.18-.41-.26-.14-.11-.28-.19-.41-.3-.16-.14-.32-.26-.46-.42-.07-.07-.16-.18-.23-.26-.16-.18-.32-.35-.44-.56-.05-.05-.07-.12-.12-.18-.28-.48-.51-1.01-.67-1.55-.02-.11-.04-.21-.07-.3-.02-.16-.05-.32-.07-.49-.37-3.39,2.22-6.23,5.51-6.33.09,0,.19.02.3.02.12,0,.25,0,.39.02.16.02.32.04.49.07.05,0,.12.02.18.04.25.05.49.11.72.19h.02c1.76.65,3.16,2.19,3.56,4.02.53,2.33-.34,4.43-1.92,5.75Z"/>
</svg>